<?xml version="1.0" standalone="no"?>
<!DOCTYPE svg PUBLIC "-//W3C//DTD SVG 20010904//EN"
 "http://www.w3.org/TR/2001/REC-SVG-20010904/DTD/svg10.dtd">
<svg version="1.0" xmlns="http://www.w3.org/2000/svg"
 width="512.000000pt" height="512.000000pt" viewBox="0 0 512.000000 512.000000"
 preserveAspectRatio="xMidYMid meet">
<metadata>
Created by potrace 1.14, written by Peter Selinger 2001-2017
</metadata>
<g transform="translate(0.000000,512.000000) scale(0.100000,-0.100000)"
fill="#000000" stroke="none">
<path d="M1336 4679 c-148 -22 -312 -85 -437 -169 -88 -60 -219 -189 -280
-277 -67 -97 -124 -221 -157 -341 l-27 -97 -3 -1190 c-2 -854 0 -1212 8 -1270
36 -251 181 -506 377 -665 125 -101 250 -164 421 -213 77 -22 77 -22 1289 -25
1197 -3 1214 -2 1315 18 415 85 743 413 828 828 20 102 21 118 18 1315 -3
1212 -3 1212 -25 1289 -49 171 -112 296 -213 421 -154 190 -392 329 -639 372
-71 13 -265 15 -1250 14 -641 -1 -1193 -5 -1225 -10z m1504 -1231 c24 -13 52
-35 63 -49 43 -60 43 -63 -192 -883 -122 -423 -228 -780 -236 -793 -39 -59
-131 -80 -201 -47 -40 19 -84 87 -84 129 0 27 403 1462 435 1551 25 66 83 110
150 113 12 1 41 -9 65 -21z m-854 -317 c79 -36 117 -137 79 -212 -10 -19 -90
-107 -178 -196 l-161 -163 162 -164 c163 -165 192 -205 192 -268 0 -45 -38
-108 -79 -132 -42 -24 -114 -26 -156 -4 -16 9 -134 121 -262 250 -193 194
-233 240 -244 276 -25 84 -13 101 244 361 278 279 305 296 403 252z m1294 -6
c14 -7 129 -118 257 -247 256 -258 266 -272 243 -360 -10 -37 -45 -77 -243
-276 -128 -129 -245 -241 -262 -250 -125 -66 -274 63 -225 195 6 15 88 106
183 200 l172 173 -177 177 c-148 150 -177 184 -183 216 -26 137 111 237 235
172z"/>
</g>
</svg>
